<?xml version="1.0" encoding="utf-8"?>
<!-- Generator: Adobe Illustrator 14.0.0, SVG Export Plug-In . SVG Version: 6.00 Build 43363)  -->
<!DOCTYPE svg PUBLIC "-//W3C//DTD SVG 1.1//EN" "http://www.w3.org/Graphics/SVG/1.1/DTD/svg11.dtd">
<svg version="1.1" id="Ebene_1" xmlns="http://www.w3.org/2000/svg" xmlns:xlink="http://www.w3.org/1999/xlink" x="0px" y="0px"
	 width="806.578px" height="808px" viewBox="0 0 806.578 808" enable-background="new 0 0 806.578 808" xml:space="preserve">
<path fill="#FFCC00" d="M272.789,237.917c0,0,12.277,1.931,41.353,22.95c29.076,21.018,48.168,44.664,48.168,44.664
	S299.289,364,269.764,458.296l20.029,3.682c35.496-90.978,69.885-132.336,120.33-169.644s106.411-54.369,106.411-54.369
	l-3.408-22.964c0,0-24.878,9.083-63.237,26.424c-38.36,17.339-70.238,45.539-70.238,45.539s-13.421-18.547-39.694-37.464
	c-26.272-18.916-34.284-21.778-34.284-21.778L272.789,237.917z"/>
<path fill="#FFCC00" d="M521.654,193.794c2.37,16.036,4.905,28.024,4.905,28.024s0.328-0.065,0.939-0.182
	c2.677-0.507,12.086-1.904,21.829-3.496c15.287-2.498,34.17-4.53,50.445,2.89c35.732,16.289,71.529,72.646,71.99,75.404
	c0.459,2.759-17.998,21.018-17.998,21.018s22.121,5.361,23.076,8.057c0.957,2.696,15.064,35.032-8.934,89.68
	c-5.018,11.432-24.404,27.309-42.912,30.741c-16.488,3.056-18.785,3.415-18.785,3.415s3.498,3.758,16.42,16.552
	c17.693,17.514,15.568,39.992,14.803,59.464c-1.402,35.558-9.986,56.401-34.33,88.104c-2.945,3.832-40.111,1.051-40.111,1.051
	s2.664,29.417-0.35,31.177s-43.09,27.325-91.957,18.392c-40.118-7.333-57.801-61.831-57.801-61.831s-23.472,53.775-61.305,62.006
	c-37.833,8.233-69.956-0.475-97.912-16.29c-3.495-1.978-1.4-30.826-1.4-30.826s-36.958,1.575-39.41-1.401
	c-6.307-7.66-33.149-35.559-34.331-82.849c-0.875-35.031,19.793-69.885,19.793-69.885s-6.902-6.719-20.143-14.365
	c-16.99-9.807-25.511-20.212-32.229-37.131c-15.162-38.185-11.49-56.41-7.181-84.25c0.387-2.495,22.07-9.808,22.07-9.808
	s-16.936-18.623-16.64-20.494c0.525-3.328,32.995-62.872,72.514-76.718c12.519-4.385,32.404-1.577,48.343,4.029
	c14.645,5.15,28.2,5.254,28.2,5.254s4.748-10.125,5.781-27.323c1.575-26.273,4.509-41.28,12.435-51.495
	c17.761-22.894,51.496-35.208,77.418-38.534c4.842-0.623,19.443,22.944,19.443,22.944s15.689-21.626,18.649-20.906
	c13.927,3.391,41.47,6.091,73.132,33.517C513.655,159.46,519.377,178.38,521.654,193.794z M493.631,156.923
	c-30.323-26.266-50.112-28.806-63.451-32.053c-2.834-0.69-21.938,29.688-21.938,29.688s-17.301-32.254-21.939-31.659
	c-24.828,3.188-53.115,18.348-66.427,35.338c-7.638,9.748-10.05,27.033-11.561,52.196c-0.989,16.471-7.356,32.754-7.356,32.754
	s-18.554-1.724-32.579-6.656c-15.265-5.368-35.852-10.4-47.817-6.131c-32.404,11.561-64.655,60.57-65.158,63.757
	c-0.283,1.792,21.622,25.551,21.622,25.551s-28.784,11.294-29.153,13.683c-4.128,26.663-1.927,48.343,7.026,71.584
	c6.268,16.27,16.986,29.196,33.259,38.588c12.68,7.322,24.347,16.816,24.347,16.816s-25.099,32.914-24.262,66.464
	c1.133,45.289,23.65,71.403,29.69,78.738c2.348,2.854,44.665-0.175,44.665-0.175s-3.698,32.963-0.351,34.856
	c26.775,15.146,58.502,17.866,86.877,12.085c36.335-7.401,64.807-83.723,64.807-83.723s21.297,76.576,59.727,83.549
	c39.587,7.18,76.459-10.753,79.346-12.436c2.885-1.686-0.875-36.434-0.875-36.434s42.371,2.971,45.188-0.701
	c23.318-30.362,27.736-44.066,29.078-78.119c0.734-18.649-2.85-39.449-19.793-56.224c-12.379-12.255-25.867-26.593-25.867-26.593
	s23.406-5.537,39.66-7.825c18.654-2.628,29.732-15.431,35.947-25.646c18.438-30.316,11.83-72.146,10.914-74.728
	c-0.914-2.581-31.359-13.258-31.359-13.258s24.086-24.025,23.645-26.668c-0.439-2.642-28.703-45.221-62.924-60.823
	c-15.588-7.105-34.625-3.836-49.262-1.444c-9.334,1.525-30.873,6.7-30.873,6.7s-2.853-19.191-5.123-34.55
	C509.182,188.666,506.602,168.16,493.631,156.923z"/>
<g>
	<g>
		<path fill="#FFCC00" stroke="#FFCC00" d="M56.742,268.187c0.655-2.002,1.323-3.994,2.004-5.973
			c12.813,4.438,25.627,8.877,38.44,13.315c-0.606,1.762-1.201,3.535-1.784,5.318C82.515,276.627,69.628,272.407,56.742,268.187z"/>
		<path fill="#FFCC00" stroke="#FFCC00" d="M101.063,264.801c-10.124-3.903-20.247-7.806-30.371-11.709
			c0.125-0.329,0.25-0.657,0.375-0.985c11.589-7.026,23.255-13.036,34.91-18.096c-7.465-3.682-14.929-7.364-22.394-11.045
			c0.667-1.391,1.34-2.773,2.02-4.149c9.678,4.927,19.355,9.854,29.033,14.781c-0.141,0.285-0.281,0.571-0.422,0.856
			c-11.466,4.699-22.958,10.317-34.387,16.92c7.625,3.061,15.25,6.122,22.875,9.183
			C102.149,261.963,101.603,263.378,101.063,264.801z"/>
		<path fill="#FFCC00" stroke="#FFCC00" d="M91.448,214.325c-0.938-0.5-1.877-1-2.815-1.5c3.894-7.532,7.999-14.843,12.302-21.932
			c0.902,0.564,1.805,1.128,2.707,1.692c-1.736,2.859-3.439,5.756-5.109,8.688c8.457,4.961,16.913,9.923,25.369,14.884
			c-0.701,1.232-1.396,2.47-2.084,3.716c-8.518-4.852-17.036-9.703-25.554-14.554C94.624,208.285,93.018,211.287,91.448,214.325z"/>
		<path fill="#FFCC00" stroke="#FFCC00" d="M104.388,185.319c4.61-7.292,9.434-14.342,14.458-21.15c0.85,0.642,1.7,1.284,2.55,1.926
			c-4.111,5.571-8.088,11.306-11.921,17.205c2.834,1.894,5.669,3.787,8.503,5.68c3.693-5.682,7.522-11.208,11.48-16.577
			c0.851,0.642,1.701,1.284,2.552,1.925c-3.922,5.321-7.716,10.796-11.375,16.426c3.554,2.374,7.107,4.748,10.661,7.122
			c3.524-5.422,7.178-10.696,10.956-15.82c0.851,0.642,1.701,1.284,2.551,1.926c-4.538,6.156-8.897,12.53-13.064,19.122
			C122.621,197.175,113.504,191.248,104.388,185.319z"/>
		<path fill="#FFCC00" stroke="#FFCC00" d="M123.587,157.892c1.789-2.314,3.601-4.599,5.437-6.854
			c3.071-3.77,5.32-6.156,6.661-7.261c2.02-1.662,4.117-2.592,6.262-2.801c2.146-0.208,4.001,0.427,5.572,1.872
			c1.311,1.205,2.099,2.664,2.381,4.368c0.283,1.705,0.028,3.521-0.755,5.466c-0.783,1.946-2.295,4.236-4.513,6.927
			c7.046-0.569,14.023-0.88,20.92-0.945c-1.093,1.201-2.178,2.413-3.255,3.634c-6.902,0.18-13.881,0.609-20.926,1.299
			c-0.493,0.612-0.984,1.227-1.474,1.844c3.929,3.181,7.858,6.362,11.787,9.543c-0.828,1.043-1.65,2.094-2.467,3.15
			C140.673,171.387,132.13,164.639,123.587,157.892z M128.782,156.443c2.876,2.329,5.752,4.658,8.629,6.986
			c1.517-1.889,3.051-3.756,4.601-5.603c1.789-2.156,2.975-3.859,3.537-5.149c0.563-1.289,0.754-2.517,0.572-3.689
			c-0.183-1.172-0.689-2.136-1.527-2.888c-0.815-0.732-1.812-1.109-2.994-1.121c-1.181-0.013-2.333,0.334-3.453,1.043
			c-1.119,0.709-2.644,2.19-4.54,4.474C131.981,152.456,130.373,154.438,128.782,156.443z"/>
		<path fill="#FFCC00" stroke="#FFCC00" d="M170.929,152.9c-7.83-7.576-15.66-15.152-23.49-22.729
			c0.216-0.226,0.432-0.451,0.648-0.676c12.609-1.062,24.996-1.324,37.095-0.854c-5.517-6.273-11.033-12.547-16.549-18.821
			c1.047-0.923,2.098-1.838,3.154-2.747c7.103,8.266,14.205,16.532,21.307,24.799c-0.219,0.188-0.437,0.376-0.656,0.565
			c-11.82-0.686-23.932-0.666-36.271,0.128c5.859,5.809,11.718,11.618,17.577,17.427C172.801,150.955,171.862,151.924,170.929,152.9
			z"/>
		<path fill="#FFCC00" stroke="#FFCC00" d="M193.323,89.986c11.728,4.927,23.075,10.359,34.01,16.253
			c-1.147,0.744-2.291,1.495-3.43,2.255c-3.664-1.866-7.372-3.68-11.125-5.439c-4.642,3.223-9.212,6.574-13.706,10.054
			c0.576,4.089,1.213,8.156,1.91,12.198c-1.112,0.896-2.22,1.8-3.322,2.712c-2.282-12.259-4.011-24.749-5.167-37.425
			C192.771,90.391,193.047,90.188,193.323,89.986z M197.021,95.887c0.445,4.564,0.966,9.104,1.56,13.617
			c3.612-2.765,7.273-5.449,10.979-8.05C205.432,99.533,201.251,97.676,197.021,95.887z"/>
		<path fill="#FFCC00" stroke="#FFCC00" d="M213.092,80.343c-0.58-0.895-1.159-1.79-1.738-2.686
			c6.42-4.102,12.956-7.982,19.594-11.641c0.522,0.929,1.044,1.858,1.567,2.788c-2.678,1.476-5.339,2.988-7.982,4.537
			c5.03,8.44,10.059,16.881,15.089,25.322c-1.11,0.65-2.217,1.308-3.32,1.972c-5.128-8.382-10.256-16.764-15.384-25.146
			C218.291,77.07,215.682,78.688,213.092,80.343z"/>
		<path fill="#FFCC00" stroke="#FFCC00" d="M235.684,63.453c1.22-0.648,2.442-1.289,3.668-1.922
			c5.083,9.627,10.167,19.255,15.25,28.882c-1.116,0.577-2.229,1.16-3.339,1.75C246.07,82.592,240.877,73.022,235.684,63.453z"/>
		<path fill="#FFCC00" stroke="#FFCC00" d="M265.444,48.465c5.781-2.413,11.309-2.762,16.375-1.113
			c5.073,1.652,8.359,4.823,9.986,9.354c1.615,4.497,1.103,8.946-1.343,13.386c-2.45,4.445-6.144,7.642-11.207,9.749
			c-5.125,2.136-10.069,2.549-15.028,1.209c-4.951-1.338-8.542-4.027-10.655-8.236c-1.406-2.803-1.886-5.811-1.371-9.03
			c0.514-3.216,1.948-6.216,4.316-8.955C258.888,52.091,261.879,49.954,265.444,48.465z M266.864,51.311
			c-2.799,1.167-5.19,2.887-7.137,5.132c-1.948,2.246-3.133,4.662-3.57,7.219c-0.437,2.558-0.061,5.013,1.087,7.37
			c1.701,3.49,4.592,5.732,8.598,6.835c4.009,1.105,7.979,0.804,12.035-0.887c2.708-1.129,4.989-2.704,6.871-4.752
			c1.882-2.048,3.119-4.301,3.7-6.786c0.58-2.484,0.437-4.946-0.474-7.387c-0.904-2.425-2.41-4.374-4.547-5.817
			s-4.719-2.27-7.737-2.447C272.67,49.614,269.714,50.123,266.864,51.311z"/>
		<path fill="#FFCC00" stroke="#FFCC00" d="M304.476,69.664c-3.446-10.308-6.893-20.617-10.339-30.925
			c0.284-0.092,0.568-0.183,0.852-0.274c11.311,5.125,22.119,10.767,32.386,16.86c-2.019-8.077-4.039-16.154-6.058-24.23
			c1.312-0.316,2.625-0.624,3.94-0.925c2.516,10.564,5.033,21.129,7.549,31.693c-0.272,0.062-0.544,0.125-0.817,0.188
			c-9.937-6.139-20.408-11.847-31.379-17.059c2.518,7.835,5.036,15.669,7.554,23.504C306.933,68.878,305.704,69.267,304.476,69.664z
			"/>
		<path fill="#FFCC00" stroke="#FFCC00" d="M351.522,25.135c8.032,9.739,15.522,19.725,22.458,29.917
			c-1.336,0.138-2.671,0.284-4.005,0.438c-2.371-3.321-4.802-6.618-7.295-9.89c-5.486,0.728-10.956,1.583-16.405,2.568
			c-1.309,3.866-2.554,7.738-3.733,11.614c-1.362,0.27-2.722,0.549-4.08,0.835c3.426-11.821,7.449-23.611,12.068-35.328
			C350.861,25.238,351.191,25.186,351.522,25.135z M352.125,32.042c-1.638,4.233-3.198,8.475-4.68,12.725
			c4.367-0.767,8.748-1.452,13.139-2.055C357.836,39.124,355.016,35.566,352.125,32.042z"/>
		<path fill="#FFCC00" stroke="#FFCC00" d="M376.812,22.087c1.36-0.118,2.721-0.228,4.083-0.331
			c0.771,9.771,1.543,19.543,2.314,29.315c4.818-0.364,9.643-0.627,14.472-0.791c0.037,1.046,0.074,2.093,0.111,3.14
			c-6.025,0.204-12.045,0.565-18.052,1.084C378.763,43.699,377.787,32.893,376.812,22.087z"/>
		<path fill="#FFCC00" stroke="#FFCC00" d="M419.149,16.647c0.035-1.327,0.07-2.654,0.105-3.981
			c9.564,0.241,19.12,0.836,28.642,1.785c-0.138,1.321-0.275,2.641-0.413,3.962c-3.833-0.382-7.672-0.706-11.515-0.972
			c-0.883,12.202-1.766,24.404-2.649,36.606c-1.582-0.11-3.164-0.208-4.747-0.296c0.707-12.213,1.415-24.426,2.122-36.639
			C426.849,16.899,423,16.745,419.149,16.647z"/>
		<path fill="#FFCC00" stroke="#FFCC00" d="M453.102,23.198c1.356,0.157,2.712,0.322,4.067,0.494
			c-0.598,4.512-1.196,9.024-1.793,13.537c6.645,0.843,13.267,1.871,19.858,3.083c0.856-4.472,1.713-8.944,2.569-13.417
			c1.344,0.247,2.687,0.501,4.029,0.763c-2.163,10.639-4.325,21.279-6.487,31.918c-1.222-0.239-2.444-0.47-3.667-0.695
			c0.985-5.146,1.971-10.292,2.957-15.439c-6.531-1.2-13.093-2.219-19.677-3.054c-0.688,5.192-1.376,10.385-2.064,15.578
			c-1.233-0.157-2.468-0.307-3.703-0.45C450.494,44.743,451.798,33.971,453.102,23.198z"/>
		<path fill="#FFCC00" stroke="#FFCC00" d="M491.744,29.732c1.334,0.298,2.667,0.604,3.998,0.917
			c-1.556,6.369-3.112,12.738-4.669,19.106c-0.554,2.267-0.848,3.69-0.883,4.274c-0.119,1.292,0.054,2.436,0.515,3.435
			s1.309,1.948,2.541,2.855c1.231,0.909,2.535,1.543,3.921,1.907c1.205,0.316,2.418,0.406,3.649,0.269s2.331-0.489,3.305-1.057
			c0.974-0.569,1.802-1.353,2.482-2.355c0.487-0.721,1.102-2.312,1.842-4.773c1.888-6.282,3.775-12.564,5.663-18.846
			c1.315,0.381,2.628,0.77,3.939,1.166c-1.959,6.261-3.917,12.521-5.876,18.783c-0.87,2.778-1.895,4.925-3.063,6.45
			c-1.168,1.525-2.892,2.641-5.159,3.375c-2.268,0.734-4.723,0.74-7.402,0.034c-2.91-0.766-5.249-1.991-7.045-3.71
			s-2.832-3.656-3.083-5.832c-0.164-1.338,0.125-3.619,0.873-6.84C488.775,42.503,490.26,36.118,491.744,29.732z"/>
		<path fill="#FFCC00" stroke="#FFCC00" d="M527.904,39.758c2.592,0.863,5.175,1.755,7.748,2.676
			c4.303,1.543,7.142,2.799,8.546,3.657c2.114,1.295,3.597,2.915,4.439,4.831c0.845,1.917,0.834,3.859-0.001,5.82
			c-0.696,1.635-1.784,2.875-3.248,3.732c-1.464,0.858-3.193,1.255-5.194,1.207c-2.002-0.048-4.533-0.653-7.622-1.776
			c2.616,6.344,5.009,12.707,7.18,19.079c-1.429-0.594-2.862-1.177-4.298-1.75c-2.258-6.338-4.738-12.666-7.44-18.971
			c-0.696-0.246-1.393-0.489-2.09-0.729c-1.697,4.753-3.395,9.507-5.092,14.261c-1.18-0.408-2.361-0.809-3.545-1.203
			C520.826,60.314,524.365,50.036,527.904,39.758z M530.725,44.086c-1.243,3.48-2.485,6.96-3.728,10.44
			c2.141,0.755,4.275,1.531,6.402,2.329c2.478,0.911,4.375,1.417,5.713,1.49c1.337,0.073,2.508-0.177,3.517-0.756
			c1.009-0.578,1.73-1.384,2.158-2.423c0.417-1.011,0.457-2.067,0.109-3.167c-0.347-1.1-1.009-2.048-1.989-2.84
			c-0.979-0.79-2.779-1.689-5.404-2.656C535.251,45.674,532.992,44.869,530.725,44.086z"/>
		<path fill="#FFCC00" stroke="#FFCC00" d="M559.624,51.991c1.258,0.555,2.514,1.117,3.767,1.686
			c-4.6,9.862-9.199,19.724-13.799,29.585c-1.141-0.518-2.283-1.03-3.43-1.535C550.649,71.815,555.136,61.903,559.624,51.991z"/>
		<path fill="#FFCC00" stroke="#FFCC00" d="M557.415,86.943c4.856-9.741,9.713-19.482,14.569-29.223
			c0.27,0.131,0.539,0.263,0.809,0.395c4.502,11.497,8.299,23.042,11.399,34.569c4.298-7.158,8.596-14.316,12.894-21.474
			c1.177,0.695,2.35,1.397,3.52,2.106c-5.712,9.275-11.424,18.55-17.136,27.825c-0.242-0.147-0.484-0.293-0.728-0.439
			c-2.833-11.338-6.345-22.705-10.545-34.034c-3.764,7.333-7.528,14.667-11.292,22C559.745,88.086,558.581,87.511,557.415,86.943z"
			/>
		<path fill="#FFCC00" stroke="#FFCC00" d="M638.365,106.852c-1.339-0.068-2.675-0.128-4.009-0.178
			c-0.659-2.842-1.804-5.49-3.422-7.914c-1.621-2.425-3.503-4.425-5.617-5.984c-2.633-1.94-5.539-3.242-8.671-3.888
			c-3.134-0.646-5.972-0.5-8.496,0.407c-2.526,0.906-4.439,2.377-5.769,4.375c-1.362,2.048-1.982,4.433-1.909,7.144
			c0.073,2.712,0.881,5.357,2.405,7.962c1.525,2.607,3.585,4.857,6.208,6.798c3.184,2.356,6.411,3.653,9.767,3.886
			c3.353,0.233,6.194-0.618,8.515-2.627c-3.287-2.681-6.618-5.29-9.991-7.829c0.635-0.839,1.27-1.678,1.904-2.516
			c4.602,3.463,9.126,7.057,13.568,10.781c-3.279,3.85-7.255,5.733-11.866,5.817c-4.619,0.083-9.17-1.625-13.837-5.077
			c-5.668-4.187-9.063-8.979-10.255-14.706c-0.913-4.399-0.312-8.352,1.952-11.848c1.683-2.597,4.052-4.507,7.15-5.671
			c3.097-1.164,6.513-1.41,10.221-0.692c3.706,0.718,7.373,2.382,10.922,4.995c2.871,2.114,5.249,4.555,7.108,7.28
			C636.104,100.089,637.487,103.263,638.365,106.852z"/>
		<path fill="#FFCC00" stroke="#FFCC00" d="M649.454,109.078c1.064,0.932,2.124,1.871,3.178,2.817
			c-7.267,8.122-14.532,16.244-21.799,24.367c-0.96-0.862-1.924-1.717-2.893-2.565C635.111,125.491,642.283,117.284,649.454,109.078
			z"/>
		<path fill="#FFCC00" stroke="#FFCC00" d="M672.202,130.914c-3.233,12.41-6.998,24.544-11.267,36.361
			c-0.923-1.091-1.852-2.174-2.786-3.249c1.325-3.939,2.593-7.912,3.803-11.917c-3.921-4.336-7.938-8.543-12.044-12.622
			c-4,1.08-7.965,2.223-11.894,3.428c-1.046-0.999-2.098-1.99-3.154-2.972c11.877-3.838,24.095-7.116,36.614-9.791
			C671.717,130.405,671.959,130.66,672.202,130.914z M666.83,135.342c-4.504,0.991-8.969,2.062-13.392,3.209
			c3.273,3.288,6.489,6.659,9.645,10.11C664.401,144.26,665.65,139.819,666.83,135.342z"/>
		<path fill="#FFCC00" stroke="#FFCC00" d="M720.917,194.629c-1.465-0.866-2.931-1.716-4.397-2.55
			c0.687-3.323,0.6-6.796-0.274-10.372c-0.874-3.576-2.483-7.103-4.821-10.512c-2.557-3.728-5.619-6.662-9.117-8.769
			c-3.501-2.109-6.928-3.122-10.242-3.091c-3.316,0.031-6.243,1.118-8.805,3.187c-3.873,3.135-5.724,7.456-5.751,12.916
			c-0.028,5.47,1.802,10.757,5.491,16.145c4.053,5.926,9.137,9.801,15.532,11.722c0.035,1.625,0.059,3.25,0.071,4.871
			c-3.554-0.934-6.925-2.658-10.159-5.143c-3.237-2.488-6.138-5.644-8.774-9.49c-5.015-7.304-7.281-14.202-6.756-21.237
			c0.462-5.902,2.762-10.714,7.125-14.36c4.581-3.827,10.2-4.958,16.9-3.009c6.688,1.947,12.717,6.579,17.729,13.881
			c3.024,4.409,5.06,8.915,6.102,13.397C721.811,186.699,721.847,190.859,720.917,194.629z"/>
		<path fill="#FFCC00" stroke="#FFCC00" d="M725.493,203.83c0.74,1.341,1.475,2.69,2.201,4.046
			c-5.74,3.172-11.48,6.344-17.222,9.515c-2.043,1.129-3.288,1.884-3.737,2.265c-1.023,0.811-1.73,1.767-2.125,2.867
			c-0.396,1.099-0.477,2.496-0.255,4.196c0.221,1.699,0.693,3.272,1.421,4.73c0.631,1.265,1.434,2.382,2.413,3.354
			c0.979,0.972,2.021,1.683,3.129,2.128c1.108,0.446,2.271,0.613,3.484,0.494c0.872-0.086,2.467-0.682,4.785-1.788
			c5.914-2.824,11.828-5.648,17.743-8.472c0.661,1.424,1.314,2.855,1.962,4.294c-5.95,2.747-11.9,5.493-17.85,8.239
			c-2.641,1.218-4.934,1.847-6.874,1.91c-1.942,0.06-3.982-0.661-6.135-2.123c-2.152-1.461-3.91-3.594-5.314-6.414
			c-1.523-3.059-2.31-5.932-2.348-8.683c-0.039-2.749,0.625-4.992,2.024-6.741c0.855-1.083,2.718-2.446,5.594-4.083
			C714.09,210.32,719.792,207.075,725.493,203.83z"/>
		<path fill="#FFCC00" stroke="#FFCC00" d="M743.921,242.192c1.216,2.94,2.401,5.909,3.557,8.907
			c1.985,5.161,3.093,8.775,3.439,10.721c0.5,2.788,0.349,5.266-0.438,7.4c-0.787,2.136-2.216,3.528-4.262,4.198
			c-2.062,0.674-4.023,0.421-5.89-0.722c-1.868-1.144-3.5-3.006-4.925-5.574c-1.042-1.875-2.53-5.534-4.6-10.859
			c-0.397-1.021-0.798-2.037-1.202-3.05c-4.673,1.905-9.345,3.809-14.018,5.713c-0.541-1.356-1.09-2.706-1.646-4.048
			C723.932,250.65,733.927,246.421,743.921,242.192z M742.778,247.843c-3.409,1.389-6.817,2.778-10.227,4.168
			c0.948,2.433,1.874,4.885,2.779,7.357c1.122,2.989,2.104,5.134,2.985,6.406c0.881,1.271,1.885,2.168,3.021,2.688
			c1.136,0.517,2.233,0.602,3.291,0.238c1.03-0.353,1.834-1.09,2.403-2.216c0.569-1.127,0.796-2.436,0.677-3.921
			c-0.121-1.483-0.733-3.771-1.874-6.818C744.839,253.088,743.821,250.454,742.778,247.843z"/>
	</g>
</g>
<text transform="matrix(1 0 0 1 314.6528 776.459)" fill="#FFCC00" stroke="#FFCC00" stroke-width="2" font-family="'CenturyGothic'" font-size="81.8598">J</text>
<text transform="matrix(0.8 0 0 0.8 354.104 776.459)" fill="#FFCC00" stroke="#FFCC00" stroke-width="2" font-family="'CenturyGothic'" font-size="81.8598">udo</text>
<path fill="#FFCC00" d="M262.474,607.685c0,0-0.061-17.114,6.627-55.798c7.164-41.434,12.747-57.198,12.747-57.198l-21.671-3.938
	c0,0-6.563,21.459-12.922,56.439c-5.841,32.131-6.861,60.69-6.861,60.69L262.474,607.685z"/>
<path fill="#FFCC00" d="M424.789,477.5l3.988-7.101c74.21-8.751,152.083-28.731,152.083-28.731l20.335,21.236
	c0,0-73.795,21.593-149.685,33.373L424.789,477.5z M411.178,510.961c0,0,18.705,15.243,30.725,22.204
	c24.04,13.926,56.883,35.789,60.167,35c3.285-0.789,17.227-27.162,16.833-29c-0.395-1.84-36.983-20.393-53.667-31.166
	c-8.467-5.467-41.596-28.561-41.596-28.561C415.413,495.859,414.914,503.542,411.178,510.961z M378.494,483.125
	c3.419,3.25,8.232,14.063,8.232,14.063c-0.313-13.938,1.754-38.563,1.754-38.563c-1.147-1.182-8.269,1.768-13.129,4
	c-4.859,2.234-10.838,6.807-10.313,9.063C365.564,473.944,373.645,478.516,378.494,483.125z M389.57,510.188
	c3.052,3.653,14.866,4.027,18.219,1.906c3.352-2.121,2.24-7.245,11.172-27.785c3.454-7.941,9.941-17,9.156-18.356
	c-1.152-1.988-11.159-6.285-16.938-8.386c-5.78-2.102-17.74-5.636-19.556-2.483C389.806,458.239,386.874,506.961,389.57,510.188z
	 M198.3,463.049l-5.442,10.583c0,0,81.405,21.513,158.971,26.985l20.085-20.055c-7.842-5.75-8.643-7.547-8.643-7.547
	c-71.644-3.963-173.264-28.313-173.264-28.313L198.3,463.049z M291.19,577.164c-0.395,2.759,25.752,21.15,28.117,20.624
	c2.365-0.524,12.76-22.688,32.982-47.455c10.692-13.096,35.188-39.927,35.188-39.927c-0.906-2.875-0.891-9.609-0.891-9.609
	c-5.838-8.255-5.547-13.63-12.921-19.172c0,0-31.742,31.604-39.381,40.235C320.096,537.885,291.584,574.406,291.19,577.164z"/>
<path fill="none" d="M603.168,268.333l-263.49,226.777C373.538,358.815,498.808,294.961,603.168,268.333z"/>
</svg>
