<?xml version="1.0" encoding="UTF-8" standalone="no"?>
<!-- Created with Inkscape (http://www.inkscape.org/) -->

<svg
   xmlns:osb="http://www.openswatchbook.org/uri/2009/osb"
   xmlns:dc="http://purl.org/dc/elements/1.1/"
   xmlns:cc="http://creativecommons.org/ns#"
   xmlns:rdf="http://www.w3.org/1999/02/22-rdf-syntax-ns#"
   xmlns:svg="http://www.w3.org/2000/svg"
   xmlns="http://www.w3.org/2000/svg"
   xmlns:sodipodi="http://sodipodi.sourceforge.net/DTD/sodipodi-0.dtd"
   xmlns:inkscape="http://www.inkscape.org/namespaces/inkscape"
   width="1777"
   height="1000"
   viewBox="0 0 1777 1000"
   id="svg2"
   version="1.1"
   inkscape:version="0.92.2 (5c3e80d, 2017-08-06)"
   sodipodi:docname="logo_black.svg"
   inkscape:export-filename="C:\Users\Thomas\Google Drive\Internationaler ThüringenPokal\27. Internationaler Thüringenpokal\M2.png"
   inkscape:export-xdpi="90"
   inkscape:export-ydpi="90">
  <defs
     id="defs4">
    <linearGradient
       gradientTransform="matrix(1,0,0,-1,-1617.2928,200.88854)"
       y2="-212.7417"
       x2="222.8434"
       y1="-278.12701"
       x1="215.76559"
       gradientUnits="userSpaceOnUse"
       id="linearGradient4217">
      <stop
         id="stop4219"
         style="stop-color:#21FF2C"
         offset="0" />
      <!--20ABFF-->
      <stop
         id="stop4221"
         style="stop-color:#14DF3D"
         offset="0.5838" />
      <!--1572DE-->
      <stop
         id="stop4223"
         style="stop-color:#ffffff;stop-opacity:1"
         offset="0.58380002" />
      <!--0938BC-->
    </linearGradient>
    <inkscape:perspective
       sodipodi:type="inkscape:persp3d"
       inkscape:vp_x="466.67887 : 921.18992 : 1"
       inkscape:vp_y="29.992309 : -532.83981 : 0"
       inkscape:vp_z="1816.6424 : 932.76145 : 1"
       inkscape:persp3d-origin="1090.2333 : 1030.068 : 1"
       id="perspective4385" />
    <inkscape:perspective
       sodipodi:type="inkscape:persp3d"
       inkscape:vp_x="772.39315 : 911.76135 : 1"
       inkscape:vp_y="29.992309 : -532.83981 : 0"
       inkscape:vp_z="2122.3567 : 923.33288 : 1"
       inkscape:persp3d-origin="1395.9476 : 1020.6394 : 1"
       id="perspective4351" />
    <linearGradient
       id="linearGradient4228"
       osb:paint="solid">
      <stop
         style="stop-color:#ced700;stop-opacity:1;"
         offset="0"
         id="stop4230" />
    </linearGradient>
    <linearGradient
       id="linearGradient4222"
       osb:paint="solid">
      <stop
         style="stop-color:#ff0600;stop-opacity:1;"
         offset="0"
         id="stop4224" />
    </linearGradient>
    <filter
       id="Gaussian_Blur">
      <feGaussianBlur
         id="feGaussianBlur4177"
         stdDeviation="2"
         in="SourceGraphic" />
    </filter>
    <linearGradient
       id="SVGID_6_"
       gradientUnits="userSpaceOnUse"
       x1="116.0586"
       y1="-316.23441"
       x2="116.0586"
       y2="-313.37051"
       gradientTransform="matrix(0.9448,-0.3275,-0.3275,-0.9448,-1591.3831,195.91414)">
      <stop
         offset="0"
         style="stop-color:#A4FFA4"
         id="stop44" />
      <!--A3E0FF-->
      <stop
         offset="1"
         style="stop-color:#FFFFFF"
         id="stop46" />
    </linearGradient>
    <linearGradient
       id="SVGID_5_"
       gradientUnits="userSpaceOnUse"
       x1="183.9668"
       y1="-253.47659"
       x2="183.9668"
       y2="-250.61259"
       gradientTransform="matrix(1,0,0,-1,-1617.2928,200.88854)">
      <stop
         offset="0"
         style="stop-color:#A4FFA4"
         id="stop39" />
      <!--A3E0FF-->
      <stop
         offset="1"
         style="stop-color:#FFFFFF"
         id="stop41" />
    </linearGradient>
    <linearGradient
       id="SVGID_4_"
       gradientUnits="userSpaceOnUse"
       x1="199.0293"
       y1="-265.77731"
       x2="278.44339"
       y2="-265.77731"
       gradientTransform="matrix(1,0,0,-1,-1617.2928,200.88854)">
      <stop
         offset="0"
         style="stop-color:#21FF2C"
         id="stop34" />
      <!--20ABFF-->
      <stop
         offset="1"
         style="stop-color:#21DA64"
         id="stop36" />
      <!--2057D9-->
    </linearGradient>
    <linearGradient
       id="SVGID_3_"
       gradientUnits="userSpaceOnUse"
       x1="237.36909"
       y1="-274.5654"
       x2="237.36909"
       y2="-223.01669"
       gradientTransform="matrix(1,0,0,-1,-1617.2928,200.88854)">
      <stop
         offset="0"
         style="stop-color:#6CFF3B"
         id="stop21" />
      <!--3AEFFF-->
      <stop
         offset="0.5482"
         style="stop-color:#21FF2C"
         id="stop23" />
      <!--20ABFF-->
      <stop
         offset="0.619"
         style="stop-color:#1EFB2D"
         id="stop25" />
      <!--1EA1F9-->
      <stop
         offset="0.7399"
         style="stop-color:#1AE939"
         id="stop27" />
      <!--1986E9-->
      <stop
         offset="0.8955"
         style="stop-color:#11D248"
         id="stop29" />
      <!--105AD0-->
      <stop
         offset="1"
         style="stop-color:#09BD51"
         id="stop31" />
      <!--0938BC-->
    </linearGradient>
    <linearGradient
       id="SVGID_2_"
       gradientUnits="userSpaceOnUse"
       x1="186.625"
       y1="-258.70209"
       x2="186.625"
       y2="-248.506"
       gradientTransform="matrix(1,0,0,-1,-1617.2928,200.88854)">
      <stop
         offset="0"
         style="stop-color:#3FFF21"
         id="stop16" />
      <!--20D4FF-->
      <stop
         offset="1"
         style="stop-color:#21FF29"
         id="stop18" />
      <!--20ADFF-->
    </linearGradient>
    <linearGradient
       id="SVGID_1_"
       gradientUnits="userSpaceOnUse"
       x1="215.76559"
       y1="-278.12701"
       x2="222.8434"
       y2="-212.7417"
       gradientTransform="matrix(1,0,0,-1,-1617.2928,200.88854)">
      <stop
         offset="0"
         style="stop-color:#21FF2C"
         id="stop9" />
      <!--20ABFF-->
      <stop
         offset="0.5838"
         style="stop-color:#14DF3D"
         id="stop11" />
      <!--1572DE-->
      <stop
         offset="0.8528"
         style="stop-color:#09BD4B"
         id="stop13" />
      <!--0938BC-->
    </linearGradient>
    <filter
       id="Gaussian_Blur-9">
      <feGaussianBlur
         in="SourceGraphic"
         stdDeviation="2"
         id="feGaussianBlur6" />
    </filter>
  </defs>
  <sodipodi:namedview
     id="base"
     pagecolor="#ffffff"
     bordercolor="#666666"
     borderopacity="1.0"
     inkscape:pageopacity="0.0"
     inkscape:pageshadow="2"
     inkscape:zoom="0.37350386"
     inkscape:cx="546.76204"
     inkscape:cy="980.83205"
     inkscape:document-units="px"
     inkscape:current-layer="g3773"
     showgrid="false"
     units="px"
     showguides="true"
     inkscape:window-width="1920"
     inkscape:window-height="1017"
     inkscape:window-x="-8"
     inkscape:window-y="-8"
     inkscape:window-maximized="1" />
  <metadata
     id="metadata7">
    <rdf:RDF>
      <cc:Work
         rdf:about="">
        <dc:format>image/svg+xml</dc:format>
        <dc:type
           rdf:resource="http://purl.org/dc/dcmitype/StillImage" />
        <dc:title />
      </cc:Work>
    </rdf:RDF>
  </metadata>
  <g
     inkscape:label="Ebene 1"
     inkscape:groupmode="layer"
     id="layer1"
     transform="translate(0,-52.36216)">
    <g
       id="g3773"
       transform="matrix(4.9361725,0,0,4.9361725,163.59082,-12.753764)">
      <g
         id="g3779"
         transform="matrix(1.638437,0,0,1.4954167,-424.54746,-313.44627)"
         style="fill:#000000">
        <path
           inkscape:connector-curvature="0"
           style="fill:#000000"
           d="m 49.053158,100.76515 c 0,0 3.331115,0.56535 11.22054,6.71919 7.889343,6.15355 13.069685,13.07652 13.069685,13.07652 0,0 -17.099897,17.11828 -25.111048,44.72578 l 5.434554,1.07805 C 63.298205,139.72857 72.629226,127.61997 86.316684,116.69711 100.00425,105.77424 115.18978,100.7792 115.18978,100.7792 l -0.92467,-6.723278 c 0,0 -6.75036,2.659271 -17.158519,7.736298 -10.408369,5.07643 -19.058049,13.33269 -19.058049,13.33269 0,0 -3.641583,-5.4301 -10.770397,-10.96854 -7.128473,-5.538131 -9.302393,-6.376047 -9.302393,-6.376047 z"
           id="path3" />
        <path
           inkscape:connector-curvature="0"
           style="fill:#000000"
           d="m 116.57897,87.847044 c 0.6431,4.694942 1.33096,8.204719 1.33096,8.204719 0,0 0.0893,-0.01906 0.25477,-0.05328 0.72638,-0.148429 3.27939,-0.557433 5.92294,-1.023532 4.14795,-0.731349 9.27152,-1.326276 13.68756,0.846124 9.69536,4.769005 19.4083,21.268935 19.53342,22.076425 0.12459,0.80775 -4.88345,6.15353 -4.88345,6.15353 0,0 6.00215,1.56957 6.26129,2.3589 0.25972,0.78932 4.08737,10.2565 -2.42412,26.25611 -1.36152,3.347 -6.62166,7.99538 -11.64351,9.0002 -4.47379,0.89465 -5.0971,0.99982 -5.0971,0.99982 0,0 0.94915,1.1002 4.45534,4.84602 4.80076,5.12763 4.22415,11.70864 4.01665,17.40957 -0.38049,10.41048 -2.70957,16.51281 -9.31502,25.79461 -0.79908,1.12196 -10.88345,0.30774 -10.88345,0.30774 0,0 0.72277,8.61258 -0.0951,9.12782 -0.81781,0.51532 -11.69186,8.00007 -24.9512,5.38473 -10.885396,-2.14688 -15.683448,-18.10259 -15.683448,-18.10259 0,0 -6.36882,15.74398 -16.634229,18.15384 -10.265395,2.41041 -18.981558,-0.13898 -26.567005,-4.76934 -0.948353,-0.57908 -0.379867,-9.02508 -0.379867,-9.02508 0,0 -10.028009,0.46118 -10.693345,-0.41016 -1.711319,-2.24265 -8.994416,-10.4108 -9.315193,-24.25615 -0.2374,-10.2562 5.37059,-20.46058 5.37059,-20.46058 0,0 -1.872816,-1.96716 -5.465523,-4.20567 -4.610034,-2.87128 -6.922041,-5.91758 -8.744886,-10.87104 -4.113973,-11.17964 -3.117687,-16.51546 -1.948431,-24.66633 0.105009,-0.73047 5.988364,-2.87154 5.988364,-2.87154 0,0 -4.595386,-5.45235 -4.51502,-6.00013 0.142453,-0.97436 8.9527,-18.407361 19.675631,-22.461132 3.396803,-1.283816 8.792339,-0.461689 13.117151,1.179599 3.973724,1.507788 7.651615,1.538242 7.651615,1.538242 0,0 1.288353,-2.964351 1.56866,-7.999501 0.427333,-7.692083 1.223403,-12.085757 3.374008,-15.076457 4.819217,-6.702788 13.972722,-10.308031 21.006275,-11.2818 1.313777,-0.182388 5.275576,6.717438 5.275576,6.717438 0,0 4.256946,-6.331556 5.060108,-6.120759 3.77893,0.992801 11.252279,1.783291 19.843329,9.812939 3.67517,3.434554 5.22781,8.973868 5.8456,13.486699 z M 108.97538,77.052128 C 100.74771,69.36209 95.378186,68.618443 91.758905,67.66781 c -0.768989,-0.202019 -5.952548,8.691909 -5.952548,8.691909 0,0 -4.694385,-9.44318 -5.952823,-9.268972 -6.736776,0.933368 -14.411994,5.371838 -18.024004,10.346081 -2.072471,2.853985 -2.726923,7.914594 -3.136896,15.281703 -0.268369,4.822294 -1.996007,9.589549 -1.996007,9.589549 0,0 -5.034356,-0.50475 -8.839792,-1.9487 -4.141943,-1.571621 -9.727905,-3.044878 -12.974478,-1.795009 -8.792353,3.384779 -17.543167,17.733389 -17.679638,18.666469 -0.07667,0.52466 5.866748,7.4807 5.866748,7.4807 0,0 -7.810127,3.30659 -7.910207,4.00604 -1.120038,7.80627 -0.522841,14.15363 1.906414,20.95802 1.700736,4.76348 4.608884,8.54787 9.02433,11.29762 3.440505,2.14369 6.60622,4.92326 6.60622,4.92326 0,0 -6.810241,9.6364 -6.583109,19.45904 0.30736,13.25946 6.417039,20.905 8.055879,23.05251 0.637077,0.83558 12.119195,-0.0516 12.119195,-0.0516 0,0 -1.003377,9.65081 -0.09515,10.20503 7.265053,4.43436 15.87366,5.23067 23.572768,3.53814 9.859009,-2.16684 17.584527,-24.51201 17.584527,-24.51201 0,0 5.778592,22.41959 16.206006,24.46108 10.74134,2.10213 20.74605,-3.14819 21.5294,-3.64097 0.78278,-0.49358 -0.2374,-10.66698 -0.2374,-10.66698 0,0 11.49668,0.86986 12.26109,-0.20523 6.327,-8.88917 7.52576,-12.90142 7.88982,-22.8713 0.19914,-5.45994 -0.77325,-11.54966 -5.37048,-16.46094 -3.35888,-3.58799 -7.01863,-7.78575 -7.01863,-7.78575 0,0 6.35085,-1.62116 10.76117,-2.29102 5.06145,-0.76938 8.06733,-4.51778 9.75369,-7.50846 5.00284,-8.87581 3.2099,-21.1226 2.96134,-21.87855 -0.24799,-0.75565 -8.50884,-3.8816 -8.50884,-3.8816 0,0 6.53537,-7.03393 6.41579,-7.80774 -0.11924,-0.7735 -7.78819,-13.23959 -17.07361,-17.807461 -4.22956,-2.080162 -9.39496,-1.123088 -13.36648,-0.422763 -2.53262,0.44647 -8.37695,1.961594 -8.37695,1.961594 0,0 -0.77413,-5.618659 -1.39004,-10.11538 -0.59119,-4.320788 -1.29126,-10.324434 -4.81076,-13.614343 z"
           id="path5" />
        <path
           inkscape:connector-curvature="0"
           style="fill:#000000"
           d="m 46.254318,209.02407 c 0,0 -0.01629,-5.01059 1.798078,-16.33629 1.943872,-12.13086 3.458755,-16.74614 3.458755,-16.74614 l -5.880152,-1.15295 c 0,0 -1.780704,6.28269 -3.506207,16.52392 -1.584843,9.40715 -1.861563,17.76856 -1.861563,17.76856 l 5.991089,-0.0572 z"
           id="path65" />
        <path
           inkscape:connector-curvature="0"
           style="fill:#000000"
           d="m 90.296144,170.90907 1.082018,-2.07896 c 20.135868,-2.56205 41.265508,-8.41172 41.265508,-8.41172 l 5.51761,6.21734 c 0,0 -20.02317,6.32195 -40.614815,9.77084 z m -3.693129,9.79658 c 0,0 5.075237,4.46279 8.336747,6.50083 6.522888,4.07718 15.434308,10.47809 16.325388,10.24711 0.89137,-0.23097 4.67432,-7.95234 4.56744,-8.49051 -0.10733,-0.53872 -10.03478,-5.97056 -14.56173,-9.12461 -2.297463,-1.60057 -11.286553,-8.36196 -11.286553,-8.36196 -2.23223,4.80769 -2.367619,7.05706 -3.381292,9.22914 z m -8.868364,-8.14967 c 0.92768,0.95154 2.233599,4.11733 2.233599,4.11733 -0.08529,-4.08071 0.475977,-11.29036 0.475977,-11.29036 -0.311262,-0.346 -2.243689,0.51767 -3.562422,1.1711 -1.318418,0.65412 -2.940733,1.99297 -2.798252,2.65344 0.142645,0.66054 2.335404,1.99908 3.651098,3.34849 z m 3.005299,7.92339 c 0.828093,1.06946 4.033635,1.179 4.943435,0.55805 0.90954,-0.62103 0.607779,-2.12122 3.031408,-8.13481 0.937195,-2.3249 2.697322,-4.97717 2.484278,-5.37418 -0.312521,-0.58206 -3.027806,-1.84008 -4.595864,-2.45516 -1.568263,-0.61548 -4.813481,-1.65011 -5.30623,-0.72699 -0.492954,0.92369 -1.288544,15.18829 -0.557027,16.13309 z m -51.898366,-13.80115 -1.476534,3.09842 c 0,0 22.087992,6.29848 43.134436,7.90055 l 5.449806,-5.87157 c -2.127892,-1.68345 -2.345221,-2.20956 -2.345221,-2.20956 -19.439559,-1.16031 -47.012665,-8.28935 -47.012665,-8.28935 z m 25.20442,33.41004 c -0.107337,0.8078 6.987374,6.19221 7.62912,6.03815 0.641733,-0.15335 3.462232,-6.64244 8.949195,-13.89363 2.901057,-3.83415 9.547761,-11.68964 9.547761,-11.68964 -0.245861,-0.84168 -0.241768,-2.81322 -0.241768,-2.81322 -1.584103,-2.4169 -1.505093,-3.99057 -3.505933,-5.61313 0,0 -8.612797,9.25285 -10.685459,11.77986 -3.849684,4.69171 -11.586073,15.38412 -11.692916,16.19161 z"
           id="path67" />
      </g>
    </g>
  </g>
</svg>
