<?xml version="1.0" encoding="utf-8"?>
<!-- Generator: Adobe Illustrator 14.0.0, SVG Export Plug-In . SVG Version: 6.00 Build 43363)  -->
<!DOCTYPE svg PUBLIC "-//W3C//DTD SVG 1.1//EN" "http://www.w3.org/Graphics/SVG/1.1/DTD/svg11.dtd">
<svg version="1.1" id="Ebene_1" xmlns="http://www.w3.org/2000/svg" xmlns:xlink="http://www.w3.org/1999/xlink" x="0px" y="0px"
	 width="806.578px" height="808px" viewBox="0 0 806.578 808" enable-background="new 0 0 806.578 808" xml:space="preserve">
<path d="M272.789,237.917c0,0,12.277,1.931,41.353,22.95c29.076,21.018,48.168,44.664,48.168,44.664S299.289,364,269.764,458.296
	l20.029,3.682c35.496-90.978,69.885-132.336,120.33-169.644s106.411-54.369,106.411-54.369l-3.408-22.964
	c0,0-24.878,9.083-63.237,26.424c-38.36,17.339-70.238,45.539-70.238,45.539s-13.421-18.547-39.694-37.464
	c-26.272-18.916-34.284-21.778-34.284-21.778L272.789,237.917z"/>
<path d="M521.654,193.794c2.37,16.036,4.905,28.024,4.905,28.024s0.328-0.065,0.939-0.182c2.677-0.507,12.086-1.904,21.829-3.496
	c15.287-2.498,34.17-4.53,50.445,2.89c35.732,16.289,71.529,72.646,71.99,75.404c0.459,2.759-17.998,21.018-17.998,21.018
	s22.121,5.361,23.076,8.057c0.957,2.696,15.064,35.032-8.934,89.68c-5.018,11.432-24.404,27.309-42.912,30.741
	c-16.488,3.056-18.785,3.415-18.785,3.415s3.498,3.758,16.42,16.552c17.693,17.514,15.568,39.992,14.803,59.464
	c-1.402,35.558-9.986,56.401-34.33,88.104c-2.945,3.832-40.111,1.051-40.111,1.051s2.664,29.417-0.35,31.177
	s-43.09,27.325-91.957,18.392c-40.118-7.333-57.801-61.831-57.801-61.831s-23.472,53.775-61.305,62.006
	c-37.833,8.233-69.956-0.475-97.912-16.29c-3.495-1.978-1.4-30.826-1.4-30.826s-36.958,1.575-39.41-1.401
	c-6.307-7.66-33.149-35.559-34.331-82.849c-0.875-35.031,19.793-69.885,19.793-69.885s-6.902-6.719-20.143-14.365
	c-16.99-9.807-25.511-20.212-32.229-37.131c-15.162-38.185-11.49-56.41-7.181-84.25c0.387-2.495,22.07-9.808,22.07-9.808
	s-16.936-18.623-16.64-20.494c0.525-3.328,32.995-62.872,72.514-76.718c12.519-4.385,32.404-1.577,48.343,4.029
	c14.645,5.15,28.2,5.254,28.2,5.254s4.748-10.125,5.781-27.323c1.575-26.273,4.509-41.28,12.435-51.495
	c17.761-22.894,51.496-35.208,77.418-38.534c4.842-0.623,19.443,22.944,19.443,22.944s15.689-21.626,18.649-20.906
	c13.927,3.391,41.47,6.091,73.132,33.517C513.655,159.46,519.377,178.38,521.654,193.794z M493.631,156.923
	c-30.323-26.266-50.112-28.806-63.451-32.053c-2.834-0.69-21.938,29.688-21.938,29.688s-17.301-32.254-21.939-31.659
	c-24.828,3.188-53.115,18.348-66.427,35.338c-7.638,9.748-10.05,27.033-11.561,52.196c-0.989,16.471-7.356,32.754-7.356,32.754
	s-18.554-1.724-32.579-6.656c-15.265-5.368-35.852-10.4-47.817-6.131c-32.404,11.561-64.655,60.57-65.158,63.757
	c-0.283,1.792,21.622,25.551,21.622,25.551s-28.784,11.294-29.153,13.683c-4.128,26.663-1.927,48.343,7.026,71.584
	c6.268,16.27,16.986,29.196,33.259,38.588c12.68,7.322,24.347,16.816,24.347,16.816s-25.099,32.914-24.262,66.464
	c1.133,45.289,23.65,71.403,29.69,78.738c2.348,2.854,44.665-0.175,44.665-0.175s-3.698,32.963-0.351,34.856
	c26.775,15.146,58.502,17.866,86.877,12.085c36.335-7.401,64.807-83.723,64.807-83.723s21.297,76.576,59.727,83.549
	c39.587,7.18,76.459-10.753,79.346-12.436c2.885-1.686-0.875-36.434-0.875-36.434s42.371,2.971,45.188-0.701
	c23.318-30.362,27.736-44.066,29.078-78.119c0.734-18.649-2.85-39.449-19.793-56.224c-12.379-12.255-25.867-26.593-25.867-26.593
	s23.406-5.537,39.66-7.825c18.654-2.628,29.732-15.431,35.947-25.646c18.438-30.316,11.83-72.146,10.914-74.728
	c-0.914-2.581-31.359-13.258-31.359-13.258s24.086-24.025,23.645-26.668c-0.439-2.642-28.703-45.221-62.924-60.823
	c-15.588-7.105-34.625-3.836-49.262-1.444c-9.334,1.525-30.873,6.7-30.873,6.7s-2.853-19.191-5.123-34.55
	C509.182,188.666,506.602,168.16,493.631,156.923z"/>
<g>
	<g>
		<path d="M57.45,268.661c0.651-2.003,1.315-3.995,1.991-5.975c12.824,4.409,25.647,8.818,38.471,13.228
			c-0.603,1.762-1.193,3.535-1.772,5.318C83.243,277.042,70.347,272.851,57.45,268.661z"/>
		<path d="M101.765,265.183c-10.132-3.881-20.264-7.761-30.396-11.642c0.124-0.329,0.249-0.658,0.373-0.986
			c11.574-7.047,23.227-13.075,34.869-18.151c-7.472-3.667-14.944-7.334-22.416-11.001c0.663-1.391,1.334-2.774,2.011-4.151
			c9.687,4.908,19.374,9.816,29.062,14.725c-0.141,0.285-0.28,0.57-0.42,0.856c-11.455,4.714-22.933,10.35-34.347,16.972
			c7.631,3.044,15.263,6.089,22.894,9.133C102.845,262.346,102.301,263.761,101.765,265.183z"/>
		<path d="M92.041,214.754c-0.939-0.498-1.879-0.996-2.818-1.494c3.877-7.535,7.966-14.849,12.254-21.941
			c0.903,0.563,1.807,1.125,2.71,1.688c-1.73,2.86-3.427,5.758-5.09,8.691c8.465,4.946,16.93,9.892,25.395,14.838
			c-0.699,1.231-1.391,2.47-2.076,3.715c-8.526-4.835-17.053-9.671-25.58-14.506C95.203,208.711,93.604,211.715,92.041,214.754z"/>
		<path d="M104.918,185.743c4.594-7.295,9.402-14.347,14.411-21.158c0.851,0.641,1.702,1.282,2.553,1.922
			c-4.099,5.573-8.063,11.31-11.883,17.211c2.837,1.889,5.675,3.777,8.512,5.666c3.68-5.684,7.497-11.211,11.442-16.582
			c0.852,0.64,1.703,1.281,2.554,1.921c-3.909,5.322-7.691,10.798-11.337,16.43c3.558,2.368,7.115,4.735,10.672,7.103
			c3.511-5.423,7.153-10.697,10.918-15.822c0.852,0.641,1.703,1.281,2.554,1.921c-4.523,6.157-8.867,12.532-13.018,19.124
			C123.171,197.568,114.044,191.656,104.918,185.743z"/>
		<path d="M124.057,158.306c1.784-2.315,3.591-4.6,5.421-6.856c3.063-3.771,5.307-6.158,6.645-7.264
			c2.016-1.663,4.109-2.596,6.253-2.806c2.145-0.21,4,0.423,5.573,1.866c1.312,1.203,2.102,2.661,2.389,4.363
			c0.286,1.704,0.035,3.52-0.745,5.464c-0.779,1.945-2.286,4.236-4.498,6.928c7.042-0.576,14.015-0.893,20.907-0.963
			c-1.09,1.202-2.172,2.413-3.246,3.635c-6.897,0.186-13.873,0.621-20.913,1.318c-0.492,0.612-0.981,1.227-1.469,1.844
			c3.934,3.175,7.867,6.35,11.801,9.525c-0.825,1.043-1.645,2.094-2.459,3.15C141.163,171.775,132.609,165.04,124.057,158.306z
			 M129.247,156.852c2.88,2.324,5.76,4.648,8.639,6.973c1.513-1.89,3.042-3.758,4.588-5.604c1.784-2.157,2.965-3.86,3.525-5.15
			c0.56-1.289,0.75-2.516,0.564-3.688c-0.184-1.171-0.692-2.134-1.532-2.885c-0.816-0.73-1.813-1.106-2.994-1.117
			s-2.332,0.335-3.45,1.046c-1.117,0.71-2.638,2.192-4.529,4.477C132.437,152.863,130.833,154.846,129.247,156.852z"/>
		<path d="M171.365,153.272c-7.84-7.565-15.68-15.131-23.521-22.697c0.216-0.226,0.431-0.451,0.647-0.676
			c12.601-1.073,24.98-1.344,37.071-0.881c-5.524-6.267-11.048-12.534-16.572-18.801c1.045-0.923,2.094-1.839,3.148-2.749
			c7.112,8.258,14.224,16.516,21.336,24.774c-0.219,0.188-0.437,0.377-0.654,0.566c-11.812-0.68-23.916-0.65-36.247,0.152
			c5.866,5.801,11.733,11.603,17.6,17.404C173.232,151.327,172.296,152.296,171.365,153.272z"/>
		<path d="M193.631,90.375c11.727,4.919,23.072,10.344,34.006,16.233c-1.145,0.744-2.286,1.496-3.422,2.255
			c-3.663-1.864-7.371-3.675-11.123-5.433c-4.632,3.223-9.193,6.575-13.678,10.056c0.583,4.087,1.227,8.151,1.93,12.191
			c-1.11,0.896-2.214,1.8-3.314,2.712c-2.303-12.251-4.051-24.735-5.226-37.406C193.08,90.779,193.355,90.577,193.631,90.375z
			 M197.335,96.271c0.453,4.563,0.98,9.1,1.582,13.611c3.604-2.766,7.258-5.45,10.957-8.052
			C205.746,99.912,201.566,98.058,197.335,96.271z"/>
		<path d="M213.37,80.726c-0.581-0.895-1.161-1.789-1.741-2.684c6.409-4.104,12.934-7.985,19.562-11.646
			c0.523,0.929,1.046,1.858,1.569,2.787c-2.673,1.477-5.33,2.989-7.969,4.539c5.037,8.436,10.074,16.872,15.11,25.309
			c-1.107,0.65-2.212,1.308-3.313,1.972c-5.135-8.378-10.271-16.755-15.406-25.133C218.559,77.452,215.955,79.07,213.37,80.726z"/>
		<path d="M235.918,63.832c1.218-0.648,2.438-1.29,3.663-1.923c5.091,9.624,10.182,19.247,15.273,28.87
			c-1.114,0.577-2.225,1.16-3.333,1.75C246.32,82.963,241.119,73.397,235.918,63.832z"/>
		<path d="M265.631,48.839c5.773-2.414,11.295-2.764,16.357-1.116c5.069,1.651,8.354,4.821,9.984,9.351
			c1.618,4.496,1.11,8.945-1.328,13.384c-2.442,4.445-6.127,7.641-11.181,9.749c-5.116,2.136-10.054,2.549-15.008,1.21
			c-4.947-1.337-8.537-4.024-10.653-8.232c-1.408-2.802-1.891-5.809-1.38-9.027c0.509-3.216,1.938-6.216,4.301-8.955
			C259.086,52.466,262.072,50.328,265.631,48.839z M267.053,51.684c-2.795,1.167-5.182,2.888-7.124,5.133
			c-1.943,2.246-3.125,4.662-3.558,7.218c-0.434,2.558-0.055,5.013,1.095,7.368c1.704,3.489,4.595,5.729,8.597,6.832
			c4.006,1.104,7.971,0.803,12.019-0.888c2.704-1.129,4.979-2.704,6.857-4.752c1.877-2.048,3.11-4.301,3.688-6.785
			c0.577-2.484,0.431-4.946-0.48-7.386c-0.906-2.425-2.412-4.373-4.548-5.816c-2.136-1.443-4.716-2.269-7.731-2.445
			C272.852,49.986,269.898,50.495,267.053,51.684z"/>
		<path d="M304.64,70.028c-3.452-10.307-6.903-20.613-10.355-30.919c0.284-0.092,0.567-0.183,0.851-0.274
			c11.303,5.123,22.103,10.763,32.359,16.855c-2.022-8.076-4.044-16.152-6.067-24.229c1.31-0.315,2.622-0.624,3.935-0.925
			c2.521,10.563,5.041,21.127,7.561,31.69c-0.272,0.063-0.544,0.125-0.815,0.188c-9.927-6.138-20.39-11.845-31.353-17.055
			c2.522,7.833,5.044,15.667,7.566,23.5C307.092,69.243,305.865,69.632,304.64,70.028z"/>
		<path d="M351.594,25.5c8.027,9.737,15.511,19.724,22.44,29.915c-1.334,0.138-2.667,0.284-3.999,0.438
			c-2.368-3.321-4.798-6.618-7.288-9.889c-5.478,0.728-10.94,1.584-16.381,2.569c-1.305,3.866-2.546,7.738-3.722,11.614
			c-1.359,0.271-2.717,0.549-4.074,0.836c3.414-11.82,7.424-23.611,12.033-35.327C350.934,25.603,351.264,25.551,351.594,25.5z
			 M352.199,32.407c-1.634,4.233-3.19,8.475-4.667,12.724c4.361-0.767,8.736-1.452,13.121-2.056
			C357.907,39.488,355.088,35.931,352.199,32.407z"/>
		<path d="M376.852,22.451c1.359-0.118,2.718-0.228,4.078-0.331c0.772,9.771,1.545,19.543,2.318,29.314
			c4.811-0.364,9.629-0.627,14.45-0.791c0.037,1.046,0.074,2.093,0.111,3.14c-6.016,0.204-12.027,0.565-18.025,1.084
			C378.806,44.063,377.829,33.257,376.852,22.451z"/>
		<path d="M419.138,17.011c0.035-1.327,0.07-2.654,0.105-3.981c9.553,0.241,19.097,0.836,28.608,1.786
			c-0.138,1.321-0.275,2.642-0.413,3.962c-3.829-0.382-7.664-0.706-11.501-0.972c-0.884,12.202-1.769,24.404-2.653,36.606
			c-1.58-0.11-3.16-0.208-4.74-0.296c0.708-12.213,1.417-24.426,2.125-36.639C426.828,17.263,422.983,17.108,419.138,17.011z"/>
		<path d="M453.048,23.562c1.355,0.157,2.709,0.322,4.063,0.494c-0.599,4.512-1.198,9.024-1.797,13.537
			c6.635,0.844,13.249,1.872,19.831,3.083c0.858-4.472,1.716-8.944,2.574-13.416c1.342,0.248,2.684,0.502,4.023,0.764
			c-2.166,10.639-4.332,21.278-6.498,31.917c-1.22-0.238-2.44-0.47-3.662-0.695c0.987-5.146,1.974-10.292,2.961-15.438
			c-6.521-1.201-13.075-2.219-19.649-3.055c-0.689,5.192-1.378,10.385-2.067,15.577c-1.231-0.157-2.464-0.307-3.697-0.45
			C450.436,45.107,451.742,34.334,453.048,23.562z"/>
		<path d="M491.641,30.099c1.333,0.298,2.664,0.604,3.993,0.917c-1.559,6.368-3.118,12.736-4.677,19.104
			c-0.555,2.267-0.849,3.69-0.885,4.274c-0.12,1.291,0.052,2.436,0.511,3.434c0.46,0.999,1.307,1.947,2.535,2.855
			c1.229,0.909,2.53,1.543,3.914,1.908c1.203,0.316,2.415,0.406,3.644,0.269c1.229-0.138,2.328-0.489,3.301-1.057
			c0.973-0.568,1.801-1.352,2.481-2.355c0.487-0.72,1.102-2.311,1.843-4.772c1.891-6.281,3.781-12.562,5.671-18.843
			c1.313,0.381,2.625,0.77,3.934,1.166c-1.962,6.26-3.923,12.52-5.885,18.78c-0.871,2.778-1.897,4.924-3.064,6.449
			c-1.168,1.524-2.891,2.64-5.155,3.374c-2.266,0.734-4.717,0.74-7.393,0.034c-2.905-0.766-5.24-1.991-7.032-3.711
			c-1.792-1.719-2.825-3.655-3.074-5.831c-0.162-1.338,0.127-3.619,0.877-6.84C488.667,42.869,490.154,36.484,491.641,30.099z"/>
		<path d="M527.752,40.129c2.588,0.863,5.167,1.755,7.737,2.677c4.298,1.543,7.132,2.8,8.533,3.658
			c2.111,1.295,3.59,2.915,4.431,4.831c0.841,1.917,0.828,3.858-0.008,5.819c-0.698,1.635-1.785,2.875-3.248,3.731
			c-1.464,0.857-3.192,1.254-5.19,1.205c-1.999-0.048-4.527-0.654-7.611-1.776c2.606,6.343,4.989,12.705,7.149,19.076
			c-1.426-0.594-2.856-1.178-4.29-1.751c-2.248-6.337-4.718-12.664-7.411-18.969c-0.695-0.245-1.391-0.489-2.087-0.729
			c-1.7,4.753-3.4,9.505-5.1,14.258c-1.178-0.407-2.357-0.808-3.539-1.202C520.663,60.681,524.208,50.405,527.752,40.129z
			 M530.566,44.456c-1.245,3.479-2.489,6.959-3.734,10.438c2.138,0.755,4.269,1.532,6.393,2.329
			c2.474,0.911,4.369,1.418,5.705,1.491c1.335,0.073,2.506-0.176,3.514-0.754s1.729-1.383,2.158-2.423
			c0.418-1.011,0.459-2.066,0.113-3.167c-0.346-1.1-1.006-2.048-1.984-2.839c-0.978-0.791-2.774-1.69-5.396-2.657
			C535.086,46.045,532.83,45.239,530.566,44.456z"/>
		<path d="M559.425,52.366c1.257,0.555,2.511,1.117,3.762,1.687c-4.606,9.858-9.213,19.717-13.819,29.576
			c-1.139-0.519-2.28-1.03-3.424-1.535C550.438,72.184,554.932,62.275,559.425,52.366z"/>
		<path d="M557.176,87.31c4.864-9.737,9.728-19.475,14.592-29.212c0.269,0.131,0.538,0.263,0.807,0.395
			c4.483,11.495,8.261,23.038,11.342,34.563c4.304-7.154,8.607-14.309,12.911-21.463c1.175,0.695,2.347,1.397,3.514,2.107
			c-5.72,9.27-11.439,18.54-17.159,27.81c-0.242-0.147-0.484-0.293-0.727-0.44c-2.813-11.334-6.305-22.698-10.486-34.026
			c-3.77,7.331-7.54,14.661-11.31,21.992C559.501,88.453,558.34,87.877,557.176,87.31z"/>
		<path d="M638.02,107.241c-1.338-0.069-2.673-0.129-4.006-0.181c-0.654-2.841-1.793-5.488-3.406-7.913
			c-1.615-2.424-3.492-4.425-5.604-5.984c-2.628-1.941-5.529-3.244-8.658-3.892c-3.13-0.648-5.966-0.502-8.489,0.403
			c-2.525,0.905-4.439,2.374-5.771,4.37c-1.363,2.047-1.987,4.431-1.918,7.141c0.067,2.711,0.871,5.354,2.39,7.96
			c1.52,2.606,3.573,4.856,6.191,6.797c3.177,2.356,6.398,3.655,9.751,3.89c3.35,0.234,6.19-0.615,8.513-2.623
			c-3.28-2.681-6.604-5.291-9.971-7.83c0.636-0.838,1.271-1.676,1.907-2.515c4.592,3.464,9.106,7.059,13.539,10.784
			c-3.283,3.845-7.259,5.726-11.866,5.807c-4.616,0.081-9.159-1.628-13.816-5.081c-5.656-4.188-9.039-8.979-10.221-14.704
			c-0.905-4.397-0.298-8.349,1.969-11.843c1.686-2.596,4.055-4.504,7.152-5.667c3.096-1.162,6.51-1.406,10.213-0.687
			c3.703,0.72,7.365,2.385,10.906,4.999c2.866,2.115,5.238,4.557,7.092,7.281C635.772,100.48,637.149,103.653,638.02,107.241z"/>
		<path d="M649.098,109.474c1.062,0.932,2.118,1.872,3.17,2.818c-7.275,8.113-14.552,16.227-21.828,24.34
			c-0.957-0.862-1.919-1.717-2.885-2.565C634.736,125.87,641.917,117.672,649.098,109.474z"/>
		<path d="M671.794,131.318c-3.256,12.4-7.041,24.525-11.333,36.33c-0.919-1.091-1.845-2.174-2.776-3.249
			c1.331-3.936,2.606-7.905,3.824-11.907c-3.91-4.337-7.916-8.545-12.013-12.625c-3.999,1.077-7.964,2.216-11.893,3.418
			c-1.043-0.999-2.092-1.99-3.146-2.973c11.875-3.829,24.092-7.096,36.61-9.758C671.311,130.809,671.552,131.063,671.794,131.318z
			 M666.417,135.739c-4.504,0.987-8.968,2.054-13.391,3.197c3.266,3.289,6.473,6.66,9.62,10.112
			C663.972,144.65,665.229,140.213,666.417,135.739z"/>
		<path d="M720.367,195.058c-1.462-0.868-2.926-1.719-4.392-2.555c0.693-3.32,0.613-6.792-0.253-10.367s-2.469-7.103-4.799-10.513
			c-2.549-3.729-5.604-6.666-9.097-8.777c-3.495-2.112-6.92-3.127-10.232-3.101c-3.315,0.027-6.244,1.11-8.808,3.175
			c-3.878,3.129-5.736,7.445-5.775,12.901c-0.039,5.467,1.779,10.752,5.455,16.14c4.039,5.927,9.113,9.806,15.503,11.734
			c0.031,1.625,0.052,3.247,0.061,4.868c-3.551-0.938-6.917-2.666-10.146-5.153c-3.23-2.49-6.123-5.647-8.751-9.494
			c-4.997-7.305-7.247-14.2-6.708-21.23c0.474-5.897,2.782-10.705,7.15-14.345c4.587-3.82,10.206-4.945,16.9-2.989
			c6.681,1.954,12.699,6.591,17.695,13.896c3.016,4.411,5.041,8.917,6.074,13.399C721.277,187.133,721.304,191.291,720.367,195.058z
			"/>
		<path d="M724.922,204.261c0.737,1.342,1.469,2.691,2.192,4.047c-5.746,3.161-11.492,6.322-17.239,9.482
			c-2.045,1.125-3.291,1.878-3.742,2.258c-1.024,0.808-1.733,1.763-2.13,2.862c-0.398,1.098-0.481,2.494-0.264,4.193
			c0.217,1.698,0.686,3.271,1.409,4.729c0.629,1.266,1.43,2.383,2.405,3.355c0.977,0.974,2.018,1.686,3.125,2.132
			c1.107,0.448,2.268,0.616,3.482,0.499c0.872-0.085,2.468-0.677,4.788-1.779c5.92-2.812,11.84-5.624,17.76-8.436
			c0.658,1.425,1.31,2.857,1.952,4.296c-5.955,2.734-11.91,5.468-17.865,8.202c-2.643,1.213-4.938,1.838-6.878,1.896
			c-1.942,0.056-3.98-0.667-6.129-2.131c-2.149-1.463-3.901-3.599-5.299-6.418c-1.517-3.059-2.296-5.931-2.329-8.68
			c-0.032-2.747,0.636-4.988,2.04-6.733c0.856-1.081,2.722-2.44,5.601-4.073C713.508,210.729,719.215,207.495,724.922,204.261z"/>
		<path d="M743.268,242.638c1.21,2.941,2.389,5.911,3.538,8.91c1.975,5.163,3.074,8.778,3.416,10.724
			c0.494,2.788,0.337,5.265-0.454,7.396c-0.792,2.133-2.224,3.522-4.271,4.187c-2.063,0.669-4.024,0.413-5.889-0.734
			c-1.865-1.147-3.492-3.013-4.912-5.583c-1.038-1.875-2.518-5.536-4.575-10.862c-0.396-1.021-0.794-2.038-1.196-3.051
			c-4.677,1.895-9.353,3.789-14.029,5.683c-0.538-1.356-1.084-2.706-1.636-4.049C723.262,251.053,733.265,246.845,743.268,242.638z
			 M742.113,248.283c-3.412,1.382-6.823,2.764-10.235,4.146c0.942,2.433,1.863,4.886,2.763,7.359
			c1.115,2.99,2.092,5.136,2.972,6.409c0.878,1.272,1.88,2.171,3.016,2.692c1.135,0.52,2.231,0.606,3.291,0.246
			c1.03-0.351,1.836-1.086,2.408-2.21c0.571-1.125,0.802-2.433,0.685-3.917c-0.117-1.483-0.725-3.771-1.858-6.819
			C744.164,253.531,743.15,250.896,742.113,248.283z"/>
	</g>
</g>
<text transform="matrix(1 0 0 1 314.6528 776.459)" font-family="'CenturyGothic'" font-size="81.8598">J</text>
<text transform="matrix(0.8 0 0 0.8 354.104 776.459)" font-family="'CenturyGothic'" font-size="81.8598">udo</text>
<path d="M262.474,607.685c0,0-0.061-17.114,6.627-55.798c7.164-41.434,12.747-57.198,12.747-57.198l-21.671-3.938
	c0,0-6.563,21.459-12.922,56.439c-5.841,32.131-6.861,60.69-6.861,60.69L262.474,607.685z"/>
<path d="M424.789,477.5l3.988-7.101c74.21-8.751,152.083-28.731,152.083-28.731l20.335,21.236c0,0-73.795,21.593-149.685,33.373
	L424.789,477.5z M411.178,510.961c0,0,18.705,15.243,30.725,22.204c24.04,13.926,56.883,35.789,60.167,35
	c3.285-0.789,17.227-27.162,16.833-29c-0.395-1.84-36.983-20.393-53.667-31.166c-8.467-5.467-41.596-28.561-41.596-28.561
	C415.413,495.859,414.914,503.542,411.178,510.961z M378.494,483.125c3.419,3.25,8.232,14.063,8.232,14.063
	c-0.313-13.938,1.754-38.563,1.754-38.563c-1.147-1.182-8.269,1.768-13.129,4c-4.859,2.234-10.838,6.807-10.313,9.063
	C365.564,473.944,373.645,478.516,378.494,483.125z M389.57,510.188c3.052,3.653,14.866,4.027,18.219,1.906
	c3.352-2.121,2.24-7.245,11.172-27.785c3.454-7.941,9.941-17,9.156-18.356c-1.152-1.988-11.159-6.285-16.938-8.386
	c-5.78-2.102-17.74-5.636-19.556-2.483C389.806,458.239,386.874,506.961,389.57,510.188z M198.3,463.049l-5.442,10.583
	c0,0,81.405,21.513,158.971,26.985l20.085-20.055c-7.842-5.75-8.643-7.547-8.643-7.547c-71.644-3.963-173.264-28.313-173.264-28.313
	L198.3,463.049z M291.19,577.164c-0.395,2.759,25.752,21.15,28.117,20.624c2.365-0.524,12.76-22.688,32.982-47.455
	c10.692-13.096,35.188-39.927,35.188-39.927c-0.906-2.875-0.891-9.609-0.891-9.609c-5.838-8.255-5.547-13.63-12.921-19.172
	c0,0-31.742,31.604-39.381,40.235C320.096,537.885,291.584,574.406,291.19,577.164z"/>
<path fill="none" d="M603.168,268.333l-263.49,226.777C373.538,358.815,498.808,294.961,603.168,268.333z"/>
</svg>
